<svg width="10" height="14" viewBox="0 0 10 14" fill="none" xmlns="http://www.w3.org/2000/svg">
<g id="music_11083594 2" clip-path="url(#clip0_2074_2076)">
<g id="Layer 2">
<g id="Icon">
<path id="Vector" d="M4.99999 9.04167C5.70204 9.04167 6.37533 8.76511 6.87175 8.27282C7.36817 7.78054 7.64705 7.11286 7.64705 6.41667V2.625C7.64705 1.92881 7.36817 1.26113 6.87175 0.768845C6.37533 0.276562 5.70204 0 4.99999 0C4.29795 0 3.62466 0.276562 3.12824 0.768845C2.63182 1.26113 2.35294 1.92881 2.35294 2.625V6.41667C2.35294 7.11286 2.63182 7.78054 3.12824 8.27282C3.62466 8.76511 4.29795 9.04167 4.99999 9.04167Z" fill="black"/>
<path id="Vector_2" d="M9.41177 4.0835C9.25576 4.0835 9.10614 4.14495 8.99582 4.25435C8.8855 4.36375 8.82353 4.51212 8.82353 4.66683V6.306C8.83636 7.2933 8.46733 8.24797 7.79229 8.9738C7.11726 9.69962 6.1875 10.1415 5.19412 10.2085C4.67591 10.2346 4.15777 10.1559 3.67123 9.97706C3.1847 9.79824 2.73996 9.52309 2.36409 9.16837C1.98823 8.81364 1.6891 8.38676 1.48492 7.91372C1.28075 7.44068 1.1758 6.93138 1.17647 6.41683V4.66683C1.17647 4.51212 1.1145 4.36375 1.00418 4.25435C0.893865 4.14495 0.744245 4.0835 0.588235 4.0835C0.432226 4.0835 0.282606 4.14495 0.17229 4.25435C0.0619746 4.36375 0 4.51212 0 4.66683L0 6.41683C0.000859662 7.63025 0.450382 8.80123 1.26344 9.70803C2.0765 10.6148 3.19665 11.1945 4.41177 11.3372V12.8335H2.64706C2.49105 12.8335 2.34143 12.895 2.23111 13.0044C2.1208 13.1137 2.05882 13.2621 2.05882 13.4168C2.05882 13.5715 2.1208 13.7199 2.23111 13.8293C2.34143 13.9387 2.49105 14.0002 2.64706 14.0002H7.35294C7.50895 14.0002 7.65857 13.9387 7.76889 13.8293C7.8792 13.7199 7.94118 13.5715 7.94118 13.4168C7.94118 13.2621 7.8792 13.1137 7.76889 13.0044C7.65857 12.895 7.50895 12.8335 7.35294 12.8335H5.58824V11.3372C6.80335 11.1945 7.9235 10.6148 8.73656 9.70803C9.54962 8.80123 9.99914 7.63025 10 6.41683V4.66683C10 4.51212 9.93803 4.36375 9.82771 4.25435C9.71739 4.14495 9.56777 4.0835 9.41177 4.0835Z" fill="black"/>
</g>
</g>
</g>
<defs>
<clipPath id="clip0_2074_2076">
<rect width="10" height="14" fill="white"/>
</clipPath>
</defs>
</svg>
