<svg width="18" height="18" viewBox="0 0 18 18" fill="none" xmlns="http://www.w3.org/2000/svg">
<mask id="path-1-inside-1_783_25252" fill="white">
<path d="M17.2626 2.48489L15.6103 0.838501L9.06246 7.3654L2.51465 0.838501L0.862305 2.48489L7.41011 9.0118L0.862305 15.5387L2.51465 17.1851L9.06246 10.6582L15.6103 17.1851L17.2626 15.5387L10.7148 9.0118L17.2626 2.48489Z"/>
</mask>
<path d="M17.2626 2.48489L15.6103 0.838501L9.06246 7.3654L2.51465 0.838501L0.862305 2.48489L7.41011 9.0118L0.862305 15.5387L2.51465 17.1851L9.06246 10.6582L15.6103 17.1851L17.2626 15.5387L10.7148 9.0118L17.2626 2.48489Z" fill="#00F0FF"/>
<path d="M17.2626 2.48489L19.2482 4.47681L21.2469 2.48448L19.2478 0.492569L17.2626 2.48489ZM15.6103 0.838501L17.5954 -1.15382L15.6099 -3.13222L13.6247 -1.15341L15.6103 0.838501ZM9.06246 7.3654L7.07691 9.35732L9.06246 11.3365L11.048 9.35732L9.06246 7.3654ZM2.51465 0.838501L4.50021 -1.15341L2.51506 -3.13222L0.529508 -1.15382L2.51465 0.838501ZM0.862305 2.48489L-1.12284 0.492569L-3.12196 2.48448L-1.12325 4.47681L0.862305 2.48489ZM7.41011 9.0118L9.39567 11.0037L11.394 9.0118L9.39567 7.01989L7.41011 9.0118ZM0.862305 15.5387L-1.12325 13.5468L-3.12196 15.5391L-1.12284 17.531L0.862305 15.5387ZM2.51465 17.1851L0.529512 19.1774L2.51507 21.1558L4.50021 19.177L2.51465 17.1851ZM9.06246 10.6582L11.048 8.66629L9.06246 6.68708L7.07691 8.66629L9.06246 10.6582ZM15.6103 17.1851L13.6247 19.177L15.6099 21.1558L17.5954 19.1774L15.6103 17.1851ZM17.2626 15.5387L19.2478 17.531L21.2469 15.5391L19.2482 13.5468L17.2626 15.5387ZM10.7148 9.0118L8.72925 7.01989L6.73096 9.0118L8.72925 11.0037L10.7148 9.0118ZM19.2478 0.492569L17.5954 -1.15382L13.6251 2.83083L15.2775 4.47722L19.2478 0.492569ZM13.6247 -1.15341L7.07691 5.37349L11.048 9.35732L17.5958 2.83042L13.6247 -1.15341ZM11.048 5.37349L4.50021 -1.15341L0.529097 2.83042L7.07691 9.35732L11.048 5.37349ZM0.529508 -1.15382L-1.12284 0.492569L2.84745 4.47722L4.4998 2.83083L0.529508 -1.15382ZM-1.12325 4.47681L5.42456 11.0037L9.39567 7.01989L2.84786 0.49298L-1.12325 4.47681ZM5.42456 7.01989L-1.12325 13.5468L2.84786 17.5306L9.39567 11.0037L5.42456 7.01989ZM-1.12284 17.531L0.529512 19.1774L4.49979 15.1928L2.84745 13.5464L-1.12284 17.531ZM4.50021 19.177L11.048 12.6501L7.07691 8.66629L0.529098 15.1932L4.50021 19.177ZM7.07691 12.6501L13.6247 19.177L17.5958 15.1932L11.048 8.66629L7.07691 12.6501ZM17.5954 19.1774L19.2478 17.531L15.2775 13.5464L13.6251 15.1928L17.5954 19.1774ZM19.2482 13.5468L12.7004 7.01989L8.72925 11.0037L15.2771 17.5306L19.2482 13.5468ZM12.7004 11.0037L19.2482 4.47681L15.2771 0.49298L8.72925 7.01989L12.7004 11.0037Z" fill="#00F0FF" mask="url(#path-1-inside-1_783_25252)"/>
</svg>
