<svg width="21" height="21" viewBox="0 0 21 21" fill="none" xmlns="http://www.w3.org/2000/svg">
<path d="M7.9971 10.2483C7.72094 10.2483 7.45609 10.358 7.26081 10.5533C7.06554 10.7486 6.95583 11.0134 6.95583 11.2896C6.95583 11.5658 7.06554 11.8306 7.26081 12.0259C7.45609 12.2212 7.72094 12.3309 7.9971 12.3309C8.13384 12.3309 8.26924 12.3039 8.39557 12.2516C8.52191 12.1993 8.63669 12.1226 8.73338 12.0259C8.83007 11.9292 8.90677 11.8144 8.9591 11.6881C9.01143 11.5617 9.03836 11.4263 9.03836 11.2896C9.03836 11.1529 9.01143 11.0175 8.9591 10.8911C8.90677 10.7648 8.83007 10.65 8.73338 10.5533C8.63669 10.4566 8.52191 10.3799 8.39557 10.3276C8.26924 10.2753 8.13384 10.2483 7.9971 10.2483ZM12.9952 10.2483C12.719 10.2483 12.4542 10.358 12.2589 10.5533C12.0636 10.7486 11.9539 11.0134 11.9539 11.2896C11.9539 11.5658 12.0636 11.8306 12.2589 12.0259C12.4542 12.2212 12.719 12.3309 12.9952 12.3309C13.2713 12.3309 13.5362 12.2212 13.7315 12.0259C13.9267 11.8306 14.0364 11.5658 14.0364 11.2896C14.0364 11.0134 13.9267 10.7486 13.7315 10.5533C13.5362 10.358 13.2713 10.2483 12.9952 10.2483ZM10.4961 2.12646C9.40221 2.12646 8.31899 2.34193 7.30834 2.76056C6.29768 3.17919 5.37937 3.79278 4.60585 4.5663C3.04365 6.1285 2.16602 8.2473 2.16602 10.4566C2.16602 12.6659 3.04365 14.7847 4.60585 16.3469C5.37937 17.1204 6.29768 17.734 7.30834 18.1526C8.31899 18.5712 9.40221 18.7867 10.4961 18.7867C12.7054 18.7867 14.8242 17.9091 16.3864 16.3469C17.9486 14.7847 18.8263 12.6659 18.8263 10.4566C18.8263 9.36266 18.6108 8.27944 18.1922 7.26878C17.7735 6.25813 17.1599 5.33982 16.3864 4.5663C15.6129 3.79278 14.6946 3.17919 13.6839 2.76056C12.6733 2.34193 11.5901 2.12646 10.4961 2.12646ZM10.4961 17.1207C6.82255 17.1207 3.83204 14.1302 3.83204 10.4566C3.83204 10.215 3.83204 9.97344 3.87369 9.74019C5.8396 8.86553 7.39733 7.25782 8.21368 5.26692C9.72143 7.39943 12.2038 8.79056 15.0111 8.79056C15.6608 8.79056 16.2856 8.71559 16.8853 8.57398C17.0603 9.16542 17.1602 9.7985 17.1602 10.4566C17.1602 14.1302 14.1697 17.1207 10.4961 17.1207Z" fill="black"/>
</svg>
