<svg width="22" height="22" viewBox="0 0 22 22" fill="none" xmlns="http://www.w3.org/2000/svg">
<g id="G Mark 1" clip-path="url(#clip0_977_3974)">
<path id="Blue 500" d="M21.5946 11.0369C21.5946 10.2514 21.5239 9.49981 21.3925 8.77704H11.2255V12.9179L17.0809 12.9191C16.8434 14.2969 16.0791 15.4714 14.908 16.2544V18.9409H18.3934C20.4286 17.07 21.5946 14.3044 21.5946 11.0369Z" fill="#4285F4"/>
<path id="Green 500 1" d="M14.9093 16.2544C13.9391 16.9044 12.6897 17.2846 11.228 17.2846C8.40455 17.2846 6.00934 15.3949 5.15156 12.8477H1.55621V15.6183C3.33746 19.1292 6.9985 21.5384 11.228 21.5384C14.1513 21.5384 16.6071 20.5835 18.3947 18.9397L14.9093 16.2544Z" fill="#34A853"/>
<path id="Yellow 500 1" d="M4.81298 10.7923C4.81298 10.0771 4.93299 9.38568 5.15154 8.7357V5.96509H1.5562C0.819694 7.4169 0.405334 9.05567 0.405334 10.7923C0.405334 12.529 0.820958 14.1677 1.5562 15.6195L5.15154 12.8489C4.93299 12.199 4.81298 11.5076 4.81298 10.7923Z" fill="#FABB05"/>
<path id="Red 500" d="M11.228 4.2987C12.8236 4.2987 14.2524 4.84454 15.3805 5.91113L18.4692 2.84564C16.5932 1.11025 14.1475 0.0449219 11.228 0.0449219C6.99976 0.0449219 3.33746 2.45414 1.55621 5.96508L5.15156 8.73569C6.00934 6.18844 8.40455 4.2987 11.228 4.2987Z" fill="#E94235"/>
</g>
<defs>
<clipPath id="clip0_977_3974">
<rect width="21.1893" height="21.4935" fill="white" transform="translate(0.405334 0.0449219)"/>
</clipPath>
</defs>
</svg>
