<svg width="21" height="20" viewBox="0 0 21 20" fill="none" xmlns="http://www.w3.org/2000/svg">
<g id="history">
<path id="Vector" d="M11.7305 6.65206H10.4995V10.7553L14.0119 12.8397L14.6028 11.8467L11.7305 10.1398V6.65206ZM11.3202 2.54883C9.36133 2.54883 7.48272 3.32697 6.09761 4.71208C4.7125 6.09719 3.93435 7.9758 3.93435 9.93464H1.47241L4.72217 13.2418L8.03758 9.93464H5.57564C5.57564 8.4111 6.18087 6.94996 7.25818 5.87265C8.33548 4.79535 9.79663 4.19012 11.3202 4.19012C12.8437 4.19012 14.3049 4.79535 15.3822 5.87265C16.4595 6.94996 17.0647 8.4111 17.0647 9.93464C17.0647 11.4582 16.4595 12.9193 15.3822 13.9966C14.3049 15.0739 12.8437 15.6792 11.3202 15.6792C9.73632 15.6792 8.30019 15.0309 7.26618 13.9886L6.10086 15.154C7.43851 16.4998 9.26855 17.3205 11.3202 17.3205C13.279 17.3205 15.1576 16.5423 16.5427 15.1572C17.9278 13.7721 18.706 11.8935 18.706 9.93464C18.706 7.9758 17.9278 6.09719 16.5427 4.71208C15.1576 3.32697 13.279 2.54883 11.3202 2.54883Z" fill="white"/>
</g>
</svg>
