<svg width="11" height="11" viewBox="0 0 11 11" fill="none" xmlns="http://www.w3.org/2000/svg">
<path d="M6.8192 7.49419L8.25753 6.05585H2.88738V4.94517H8.25753L6.8192 3.50684L7.60778 2.72381L10.3845 5.50051L7.60778 8.27722L6.8192 7.49419ZM9.55148 0.502441C9.84605 0.502441 10.1286 0.619459 10.3368 0.827753C10.5451 1.03605 10.6622 1.31855 10.6622 1.61312V4.20657L9.55148 3.09589V1.61312H1.7767V9.3879H9.55148V7.90514L10.6622 6.79446V9.3879C10.6622 9.68247 10.5451 9.96498 10.3368 10.1733C10.1286 10.3816 9.84605 10.4986 9.55148 10.4986H1.7767C1.16027 10.4986 0.666016 9.99878 0.666016 9.3879V1.61312C0.666016 0.996695 1.16027 0.502441 1.7767 0.502441H9.55148Z" fill="white"/>
</svg>
