<svg width="86" height="88" viewBox="0 0 86 88" fill="none" xmlns="http://www.w3.org/2000/svg">
<path d="M42.9082 35.9219H48.2285V52.1641H42.9082V35.9219ZM16.3066 41.3359H21.627V35.9219H16.3066V41.3359ZM85.4707 11.5586V76.5273C85.4707 79.3991 84.3496 82.1533 82.3541 84.184C80.3586 86.2146 77.6521 87.3555 74.8301 87.3555H10.9863C8.16426 87.3555 5.45777 86.2146 3.46227 84.184C1.46677 82.1533 0.345703 79.3991 0.345703 76.5273V11.5586C0.345703 8.6868 1.46677 5.93262 3.46227 3.90195C5.45777 1.87129 8.16426 0.730469 10.9863 0.730469H74.8301C77.6521 0.730469 80.3586 1.87129 82.3541 3.90195C84.3496 5.93262 85.4707 8.6868 85.4707 11.5586ZM29.6074 35.9219C29.6074 33.768 28.7666 31.7024 27.27 30.1794C25.7734 28.6564 23.7435 27.8008 21.627 27.8008H8.32617V60.2852H16.3066V49.457H21.627C23.7435 49.457 25.7734 48.6014 27.27 47.0784C28.7666 45.5554 29.6074 43.4898 29.6074 41.3359V35.9219ZM56.209 35.9219C56.209 33.768 55.3682 31.7024 53.8716 30.1794C52.3749 28.6564 50.3451 27.8008 48.2285 27.8008H34.9277V60.2852H48.2285C50.3451 60.2852 52.3749 59.4295 53.8716 57.9065C55.3682 56.3835 56.209 54.3179 56.209 52.1641V35.9219ZM77.4902 27.8008H61.5293V60.2852H69.5098V49.457H77.4902V41.3359H69.5098V35.9219H77.4902V27.8008Z" fill="black"/>
</svg>
