<svg width="39" height="38" viewBox="0 0 39 38" fill="none" xmlns="http://www.w3.org/2000/svg">
<g id="arrow-right-drop-circle">
<path id="Vector" d="M3.88867 18.7452C3.88867 14.6028 5.53424 10.63 8.46336 7.70091C11.3925 4.77179 15.3652 3.12622 19.5076 3.12622C21.5588 3.12622 23.5898 3.53022 25.4848 4.31514C27.3798 5.10007 29.1016 6.25056 30.5519 7.70091C32.0023 9.15127 33.1528 10.8731 33.9377 12.7681C34.7226 14.6631 35.1266 16.6941 35.1266 18.7452C35.1266 22.8876 33.4811 26.8604 30.5519 29.7895C27.6228 32.7186 23.6501 34.3642 19.5076 34.3642C17.4565 34.3642 15.4255 33.9602 13.5305 33.1752C11.6355 32.3903 9.91372 31.2398 8.46336 29.7895C5.53424 26.8604 3.88867 22.8876 3.88867 18.7452ZM16.3839 26.5547L24.1933 18.7452L16.3839 10.9357V26.5547Z" fill="white"/>
</g>
</svg>
