<svg width="12" height="13" viewBox="0 0 12 13" fill="none" xmlns="http://www.w3.org/2000/svg">
<path d="M5.66384 8.44291C5.14834 8.44291 4.65396 8.23813 4.28944 7.87361C3.92493 7.5091 3.72015 7.01471 3.72015 6.49921C3.72015 5.98371 3.92493 5.48933 4.28944 5.12481C4.65396 4.7603 5.14834 4.55552 5.66384 4.55552C6.17934 4.55552 6.67373 4.7603 7.03824 5.12481C7.40275 5.48933 7.60754 5.98371 7.60754 6.49921C7.60754 7.01471 7.40275 7.5091 7.03824 7.87361C6.67373 8.23813 6.17934 8.44291 5.66384 8.44291ZM9.79003 7.0379C9.81224 6.86019 9.8289 6.68248 9.8289 6.49921C9.8289 6.31595 9.81224 6.13269 9.79003 5.94387L10.9618 5.03867C11.0673 4.95536 11.0951 4.80542 11.0284 4.68325L9.91776 2.76177C9.85112 2.63959 9.70117 2.58961 9.579 2.63959L8.1962 3.19493C7.90742 2.97835 7.60754 2.78953 7.25767 2.6507L7.0522 1.17904C7.02998 1.04576 6.91336 0.945801 6.77452 0.945801H4.55316C4.41432 0.945801 4.2977 1.04576 4.27549 1.17904L4.07001 2.6507C3.72015 2.78953 3.42026 2.97835 3.13149 3.19493L1.74869 2.63959C1.62651 2.58961 1.47657 2.63959 1.40993 2.76177L0.299245 4.68325C0.227051 4.80542 0.260371 4.95536 0.365886 5.03867L1.53766 5.94387C1.51544 6.13269 1.49878 6.31595 1.49878 6.49921C1.49878 6.68248 1.51544 6.86019 1.53766 7.0379L0.365886 7.95976C0.260371 8.04306 0.227051 8.19301 0.299245 8.31518L1.40993 10.2367C1.47657 10.3588 1.62651 10.4033 1.74869 10.3588L3.13149 9.79794C3.42026 10.0201 3.72015 10.2089 4.07001 10.3477L4.27549 11.8194C4.2977 11.9527 4.41432 12.0526 4.55316 12.0526H6.77452C6.91336 12.0526 7.02998 11.9527 7.0522 11.8194L7.25767 10.3477C7.60754 10.2033 7.90742 10.0201 8.1962 9.79794L9.579 10.3588C9.70117 10.4033 9.85112 10.3588 9.91776 10.2367L11.0284 8.31518C11.0951 8.19301 11.0673 8.04306 10.9618 7.95976L9.79003 7.0379Z" fill="white"/>
</svg>
