<svg width="17" height="18" viewBox="0 0 17 18" fill="none" xmlns="http://www.w3.org/2000/svg">
<path d="M8.58365 11.8757C7.8104 11.8757 7.06882 11.5685 6.52205 11.0217C5.97528 10.475 5.66811 9.73337 5.66811 8.96012C5.66811 8.18687 5.97528 7.44529 6.52205 6.89852C7.06882 6.35175 7.8104 6.04458 8.58365 6.04458C9.3569 6.04458 10.0985 6.35175 10.6453 6.89852C11.192 7.44529 11.4992 8.18687 11.4992 8.96012C11.4992 9.73337 11.192 10.475 10.6453 11.0217C10.0985 11.5685 9.3569 11.8757 8.58365 11.8757ZM14.7729 9.76815C14.8063 9.50158 14.8312 9.23502 14.8312 8.96012C14.8312 8.68523 14.8063 8.41034 14.7729 8.12711L16.5306 6.7693C16.6889 6.64435 16.7305 6.41944 16.6305 6.23617L14.9645 3.35395C14.8646 3.17069 14.6396 3.09572 14.4564 3.17069L12.3822 4.0037C11.949 3.67883 11.4992 3.3956 10.9744 3.18735L10.6662 0.97987C10.6329 0.779947 10.4579 0.630005 10.2497 0.630005H6.91763C6.70938 0.630005 6.53444 0.779947 6.50112 0.97987L6.19291 3.18735C5.66811 3.3956 5.21829 3.67883 4.78512 4.0037L2.71092 3.17069C2.52766 3.09572 2.30274 3.17069 2.20278 3.35395L0.536758 6.23617C0.428466 6.41944 0.478447 6.64435 0.636719 6.7693L2.39437 8.12711C2.36105 8.41034 2.33606 8.68523 2.33606 8.96012C2.33606 9.23502 2.36105 9.50158 2.39437 9.76815L0.636719 11.1509C0.478447 11.2759 0.428466 11.5008 0.536758 11.6841L2.20278 14.5663C2.30274 14.7496 2.52766 14.8162 2.71092 14.7496L4.78512 13.9082C5.21829 14.2414 5.66811 14.5246 6.19291 14.7329L6.50112 16.9404C6.53444 17.1403 6.70938 17.2902 6.91763 17.2902H10.2497C10.4579 17.2902 10.6329 17.1403 10.6662 16.9404L10.9744 14.7329C11.4992 14.5163 11.949 14.2414 12.3822 13.9082L14.4564 14.7496C14.6396 14.8162 14.8646 14.7496 14.9645 14.5663L16.6305 11.6841C16.7305 11.5008 16.6889 11.2759 16.5306 11.1509L14.7729 9.76815Z" fill="#FCEE09"/>
</svg>
