<svg width="12" height="13" viewBox="0 0 12 13" fill="none" xmlns="http://www.w3.org/2000/svg">
<path d="M3.99823 6.36062C3.81412 6.36062 3.63756 6.43376 3.50737 6.56394C3.37719 6.69413 3.30405 6.87069 3.30405 7.0548C3.30405 7.23891 3.37719 7.41547 3.50737 7.54566C3.63756 7.67584 3.81412 7.74898 3.99823 7.74898C4.08939 7.74898 4.17966 7.73102 4.26388 7.69613C4.3481 7.66125 4.42463 7.61012 4.48909 7.54566C4.55355 7.4812 4.60468 7.40467 4.63956 7.32045C4.67445 7.23623 4.69241 7.14596 4.69241 7.0548C4.69241 6.96364 4.67445 6.87337 4.63956 6.78915C4.60468 6.70493 4.55355 6.6284 4.48909 6.56394C4.42463 6.49948 4.3481 6.44835 4.26388 6.41346C4.17966 6.37858 4.08939 6.36062 3.99823 6.36062ZM7.33028 6.36062C7.14617 6.36062 6.9696 6.43376 6.83942 6.56394C6.70924 6.69413 6.6361 6.87069 6.6361 7.0548C6.6361 7.23891 6.70924 7.41547 6.83942 7.54566C6.9696 7.67584 7.14617 7.74898 7.33028 7.74898C7.51438 7.74898 7.69095 7.67584 7.82113 7.54566C7.95132 7.41547 8.02445 7.23891 8.02445 7.0548C8.02445 6.87069 7.95132 6.69413 7.82113 6.56394C7.69095 6.43376 7.51438 6.36062 7.33028 6.36062ZM5.66425 0.946045C4.93497 0.946045 4.21282 1.08969 3.53905 1.36877C2.86528 1.64786 2.25308 2.05692 1.7374 2.5726C0.69593 3.61407 0.11084 5.0266 0.11084 6.49946C0.11084 7.97231 0.69593 9.38485 1.7374 10.4263C2.25308 10.942 2.86528 11.3511 3.53905 11.6301C4.21282 11.9092 4.93497 12.0529 5.66425 12.0529C7.13711 12.0529 8.54964 11.4678 9.59111 10.4263C10.6326 9.38485 11.2177 7.97231 11.2177 6.49946C11.2177 5.77017 11.074 5.04803 10.7949 4.37426C10.5159 3.70049 10.1068 3.08828 9.59111 2.5726C9.07543 2.05692 8.46322 1.64786 7.78945 1.36877C7.11568 1.08969 6.39354 0.946045 5.66425 0.946045ZM5.66425 10.9422C3.2152 10.9422 1.22152 8.94851 1.22152 6.49946C1.22152 6.33841 1.22152 6.17736 1.24929 6.02186C2.5599 5.43876 3.59838 4.36695 4.14262 3.03968C5.14779 4.46136 6.8027 5.38878 8.6742 5.38878C9.10737 5.38878 9.52388 5.33879 9.92372 5.24439C10.0403 5.63868 10.107 6.06074 10.107 6.49946C10.107 8.94851 8.11331 10.9422 5.66425 10.9422Z" fill="white"/>
</svg>
